<?xml version="1.0" encoding="iso-8859-1"?><svg xmlns="http://www.w3.org/2000/svg" viewBox="0 0 1224.75 342.43"><defs><style>.cls-1,.cls-21{fill:#fedb45;}.cls-2{fill:#231f20;}.cls-3{fill:#636464;}.cls-20,.cls-4{fill:#fff;}.cls-5{fill:#ababab;}.cls-6{fill:#9aa3a8;}.cls-7{fill:#ccbe38;}.cls-8{fill:#63421a;}.cls-9{fill:#f3fafe;}.cls-10{opacity:0.2;}.cls-11{fill:#081a19;}.cls-12{fill:#3f4649;}.cls-13{fill:#3e4f55;}.cls-14{fill:#cccccb;}.cls-15,.cls-18{opacity:0.5;}.cls-16{fill:#131d1c;}.cls-17{fill:#232323;}.cls-18{fill:#4f4f4f;}.cls-19{fill:#f4f4f4;stroke-linecap:round;stroke-linejoin:round;}.cls-19,.cls-20,.cls-21{stroke:#231f20;stroke-width:0.75px;}.cls-20,.cls-21{stroke-miterlimit:10;}</style></defs><g id="Layer_2" data-name="Layer 2"><g id="Layer_1-2" data-name="Layer 1"><path class="cls-1" d="M163.91,334.07c-2.68-.76-66.18-20-121-149.83-12.5-29.59-23.71-63.07-33.34-99.53L8.4,80.38l3.27-3.06c3.06-2.85,75.59-69.82,147-69.82h1.45c2,0,3.91,0,5.86,0s3.91,0,5.86,0h1.45c71.37,0,143.9,67,147,69.82l3.28,3.06-1.15,4.33c-9.3,35.25-20.1,67.74-32.09,96.58C235.13,313.78,170.69,333.3,168,334.07l-2,.57Z"/><path class="cls-2" d="M158.63,15H160c2,0,4,0,5.95,0s4,0,6,0h1.35c69.23,0,141.83,67.8,141.83,67.8-9.82,37.17-20.61,68.78-31.77,95.61C229,309.07,165.94,326.85,165.94,326.85S103.86,309.33,49.79,181.32c-11.59-27.45-22.82-60-33-98.52,0,0,72.61-67.8,141.84-67.8m0-15C84.34,0,9.7,68.9,6.56,71.84L0,78l2.29,8.67C12,123.42,23.34,157.24,36,187.16c12.72,30.12,27,56.82,42.4,79.37,12.52,18.33,25.86,34,39.65,46.62,24.2,22.15,41.91,27.59,43.85,28.13l4.07,1.15,4.08-1.15c2-.55,19.91-6.07,44.39-28.62,14-12.85,27.42-28.84,40.06-47.54,15.55-23,29.91-50.23,42.69-81,12.12-29.15,23-62,32.42-97.54L331.87,78l-6.55-6.12C322.18,68.9,247.55,0,173.26,0h-1.55c-1.92,0-3.86,0-5.77,0s-3.85,0-5.76,0Z"/><path class="cls-2" d="M287,176.39C230.93,311.17,165.92,329.51,165.92,329.51s-64-18.07-119.81-150.11c51.69-19,147.64-28.22,188.71-22.64A125.63,125.63,0,0,1,287,176.39Z"/><path class="cls-2" d="M151.41,248.17c-10,0-60.92-2.39-89.67-48.85A12,12,0,0,1,60,196.83c-.94-1.74-1.84-3.56-2.75-5.53,0-.09-.2-.39-.2-.39a12.91,12.91,0,0,1-.66-1.52,12.38,12.38,0,0,1-2.12.17h-.59A12.69,12.69,0,0,1,42.05,179.4c-2.25-10.44-1.74-18.78,0-25.29a12.52,12.52,0,0,1-1.74-11.61,32.39,32.39,0,0,1,5-9q2.38-3.07,4.62-5.66a47.58,47.58,0,0,1-6.75-14,12.48,12.48,0,0,1,1.29-10.23c-2.35-9-2.68-20.79,3-34.55a12.54,12.54,0,0,1,3.45-4.77c.14-1.92.3-3.69.45-5.35.78-8.6.9-11.54-1.75-16.13A40.79,40.79,0,0,0,45,36.56a12.53,12.53,0,0,1,5.52-20.08,22.73,22.73,0,0,1,6.79-1h.51c4.87,0,12.47,1.3,21.26,7.25,1.14.77,2.31,1.63,3.48,2.58A12.36,12.36,0,0,1,85,25q.62,0,1.23.06c3.34.33,19,3.23,42.09,28.62,11.1-7.15,15.37-7.35,17.31-7.44h.57a11.78,11.78,0,0,1,2.15.19c8.06-4.89,19.18-10.17,29.61-10.17.39,0,.77,0,1.15,0a12.64,12.64,0,0,1,12,10,12.88,12.88,0,0,1,.05,4.79c3.21.61,6.59,1.39,10.28,2.36,1.53.4,2.93.83,4.21,1.3a191.22,191.22,0,0,1,18.72-14c10.08-6.34,13.93-12.2,14-12.26A12.53,12.53,0,0,1,251.88,23a40,40,0,0,1,9.2-7.79A12.53,12.53,0,0,1,279.28,29c-1,4.39-2.08,13.43-.61,18.88a59.61,59.61,0,0,0,4.06,10c2.31,4.85,4.89,10.23,5.2,16.25a12.44,12.44,0,0,1,3.24,4.53c2.8,6.71,3.77,17.09-1.59,26.12a12.42,12.42,0,0,1,.35,6.85c-1,4.31-3,11-6.66,16.31a41.48,41.48,0,0,1,4.33,4.74c.48.63.88,1.19,1.27,1.76a32,32,0,0,1,2.87,5.14c.3.66.58,1.36.84,2.06a12.52,12.52,0,0,1-1.29,11l-.45.65c1.72,6.51,2.23,14.84,0,25.28a12.52,12.52,0,0,1-10.74,9.79,12.75,12.75,0,0,1-1.51.09,13.13,13.13,0,0,1-2-.15c-9.33,21.76-34.1,57.22-96.71,59.82H153.23C152.87,248.15,152.26,248.17,151.41,248.17Z"/><path class="cls-3" d="M179.86,67.58s-11.5,3.64-11.92,10-14.54,2.37-12.09-.42,11.75-9.46,13.52-10S179.86,67.58,179.86,67.58Z"/><path class="cls-4" d="M271.14,144.32s.16.11.45.34c2.21,1.76,11.46,10.51,7,31.28a1,1,0,0,1-.06-.17c-.59-1.41-5-12.1-7.56-13.53a74.86,74.86,0,0,1-5.47,20.12c-8.64,20.92-30.69,50.95-86.14,53.25H153s-53.84,2.67-81.7-44.72c-1-1.64-1.9-3.32-2.78-5.07l-.38-.75V185l.36-31v-.18l.11-8.93v-.33l0-1.68.14-12.32,0-2.86v-.44s-9-1.69-13.68-17.07c0,0,6.08,5.24,9.12,5.07,0,0-15.72-15.88-5.23-41.41,0,0,.16,29.41,10.47,32.79a22.81,22.81,0,0,1,13.49,12l.2.45v0l.1-.1s0-.06.08-.09c.76-.94,3.75-5.15-.86-9.78s-14.8-3.46-18.25-20.71c0-.09,0-.18,0-.26a60.55,60.55,0,0,1-1-8.11c-1.52-26,7.44-32.95-8.78-51.72a10.6,10.6,0,0,1,3-.36c3-.05,8.17.75,14.6,5.09,10.48,7.1,17.58,19.28,17.58,38s-5.92,28.24,3.22,30.59S104.88,98.5,105,98.35l-.41.16h0s0,0,0,0c-2.11.75-10.9,3.19-9.71-9.48S102,63,90.35,44.74A72.43,72.43,0,0,0,85,37.57s18.25,1.78,46.9,40.32c0,0,2.27.4,1.56-4.6a37,37,0,0,0-1.81-6.73s11-7.6,14.54-7.76l-.74,3.68-.28,1.38s19.45-15.55,33.47-15l-.59.33c-2.43,1.4-11.61,7.07-15.88,15.13a2.34,2.34,0,0,1,.61-.65l0,0c2.37-1.8,8.95-1.64,11.06-1.68a71.86,71.86,0,0,1,13.73,1.24c3.58.63,7.13,1.46,10.63,2.38.58.15,6.2,2,5.76,2.43a18.19,18.19,0,0,0-3,4.59c-.65,1.31-1.21,2.57-1.56,3.46-.27.63-.43,1.07-.46,1.18.07-.06.38-.36.9-.81l0-.06c4-3.66,19.74-17.8,31.16-25,12.77-8,17.62-15.73,17.91-16.21-.16.53-3,9.21-6.41,17.73-2.91,7.21-4,29.35-3.37,41.64A4.49,4.49,0,0,1,233,98.87a17.07,17.07,0,0,1-5.36-3.5s0,0-.06-.06a13.19,13.19,0,0,1,1.08,2.49c1.46,2.92,3.25,5.41,6.33,6.75a10.87,10.87,0,0,0,7.77.43c2.18-.87,3.27-3.29,3.75-5.45C248,92.6,243.75,71,247.64,55.59q.13-.51.27-1A57.73,57.73,0,0,1,259,33.89c3.35-4.1,6.49-6.84,8.11-7.72,0,0-3.39,14.36-.52,25s9.63,18.43,8.79,25.37-7.1,11.65-15.55,19.6c-5.63,5.28-8.18,8.24-9.06,11.33a12.78,12.78,0,0,0-.24,5.07h0c.31-.46,5.45-7.68,17.73-15.21C280.37,89.89,279.68,84,279.61,83.5c.26.63,3.81,9.71-2.21,16.88-6.26,7.43-11.67,11-11.67,12.85,0,0,8.12-.68,12-4.41,0,0-2.69,11.67-7.1,14.54S258,126.75,258,126.75s1.21.46,3.07,1.34c4.27,2,12,6.26,16.69,12.29a20.35,20.35,0,0,1,3.06,5.46C280.61,145.78,274.8,143.48,271.14,144.32Z"/><path class="cls-5" d="M271.13,144.32a4.57,4.57,0,0,1,.47.35,43.75,43.75,0,0,0-8.33-.6,76.47,76.47,0,0,1,14.43-3.69,19.71,19.71,0,0,1,3.07,5.46C280.61,145.79,274.8,143.49,271.13,144.32Z"/><path class="cls-5" d="M278.51,175.78c-.58-1.42-5-12.12-7.54-13.54a74.77,74.77,0,0,1-5.47,20.12c2.95-19.77-1.21-29.41-1.21-29.41C274.76,156,277.75,170.42,278.51,175.78Z"/><path class="cls-5" d="M70,72.82s-1,5.52.22,8c0,0-2.06,7.3,1.75,13.3a38.05,38.05,0,0,1-7.77-5.67,59.9,59.9,0,0,1-1-8.36c-1.52-26,7.44-33-8.79-51.73a10.75,10.75,0,0,1,3-.37A18.26,18.26,0,0,1,70.82,40.87c4.57,14.46,0,27.64,1.78,32.71Z"/><path class="cls-5" d="M241.72,130.89c-21.18-16.15-53.41.58-53.75.75a42,42,0,0,1,8.7-10.19h0A40.56,40.56,0,0,1,219,111.62c9.13-.82,14.7,5.46,17,8.77a16.91,16.91,0,0,1,1.19,2c.84-2.45-.17-7.61-.17-7.61C244.17,118.88,241.72,130.89,241.72,130.89Z"/><path class="cls-2" d="M236,120.39c-2.05-1-7.61-3.27-18.17-4-9.16-.67-16.92,2.72-21.13,5.1A40.56,40.56,0,0,1,219,111.62C228.12,110.8,233.69,117.08,236,120.39Z"/><path class="cls-6" d="M245.16,126.8s.39,4.62-1.52,6.42-3,3.95-1.47,5.41,5.53,1.13,5.47-3.66A15.59,15.59,0,0,0,245.16,126.8Z"/><path class="cls-2" d="M230.17,174.47c-4.28,4.73-15.33,10.93-25.47,10a13.83,13.83,0,0,1-11.7-8.2,18.87,18.87,0,0,1-1.28-3.56,17.91,17.91,0,0,1-.54-3.57s-.45,2.26-1,9.7c0,0-5-19.84,11.15-30.66s28.74.12,30.2,4.85S234.45,169.74,230.17,174.47Z"/><path class="cls-7" d="M224.88,169c-4.51,8-13.42,12.73-18.94,13.18-4.14.34-10.18-3.76-12.94-5.83a18.87,18.87,0,0,1-1.28-3.56c.08-.51.19-1.09.34-1.73a26.39,26.39,0,0,1,7.35-12.54c8.22-8.12,19.83-10,22.42-8.57,1.37.78,3.41,3.83,4.35,7.71A15.47,15.47,0,0,1,224.88,169Z"/><path class="cls-8" d="M215.18,164.21c0,5.17-2.87,9.36-6.42,9.36s-6.42-4.19-6.42-9.36,2.87-9.35,6.42-9.35S215.18,159.05,215.18,164.21Z"/><path class="cls-9" d="M212.59,161a2.59,2.59,0,1,1-2.59-2.65A2.62,2.62,0,0,1,212.59,161Z"/><g class="cls-10"><path class="cls-11" d="M226.18,157.61c-3.42-.37-12.43-1-19.67,1.87-7,2.78-12.38,8.89-14.45,11.53a26.39,26.39,0,0,1,7.35-12.54c8.22-8.12,19.83-10,22.42-8.57C223.2,150.68,225.24,153.73,226.18,157.61Z"/></g><path class="cls-5" d="M148.46,153.06a8.13,8.13,0,0,1-3.89,1.66,12.83,12.83,0,0,1-8.27-1.66c-7.66-4.06-16.23-18.6-22.09-22.54s-13.86-4.4-13.86-4.4a28.71,28.71,0,0,1,6.63-1c17.77-.51,30.18,16.48,34.5,22.52C146.16,154.17,148.31,153.14,148.46,153.06Z"/><path class="cls-2" d="M148.46,153.06a8.13,8.13,0,0,1-3.89,1.66c-3.42-.63-5.61-3.51-14-13.61-9.08-10.89-18.94-14.71-23.57-16,17.77-.51,30.18,16.48,34.5,22.52C146.16,154.17,148.31,153.14,148.46,153.06Z"/><path class="cls-2" d="M139.33,180A25.7,25.7,0,0,1,124,185a28.83,28.83,0,0,1-7.54-1c-8-2.19-13.44-8.1-15.64-17.08a39.29,39.29,0,0,1-1-10.1l-1.46-.42.46-2.53a17.31,17.31,0,0,1,3.69-8.14,16.41,16.41,0,0,0-3.15-.89l-12-2L99,139.32a17.92,17.92,0,0,1,5.08-.71c14.9,0,31.21,16.57,33,18.46,3.53,3.68,5.51,5.55,6.54,5.55a3.77,3.77,0,0,0,1-.21c1.05-.34,2.39-3,2.84-4.63l2.54-9.29,2.91,9.18c2.2,6.92-1,11.4-4,13.52a12.92,12.92,0,0,1-3.68,7.91l-8.33,8.07Z"/><path class="cls-2" d="M104.09,141.45c11.83,0,25.78,12.17,31,17.58,4.58,4.78,6.45,6.43,8.59,6.43a6.52,6.52,0,0,0,1.89-.34c3.21-1,4.73-6.6,4.73-6.6,2.59,8.17-4.28,11.1-4.28,11.1.79,4.06-2.7,7.44-2.7,7.44a9.19,9.19,0,0,0,.11-5.18S136.7,182.2,124,182.2a25.75,25.75,0,0,1-6.79-.94c-17.08-4.65-14.46-26.54-14.46-26.54l-1.18-.34c1.18-6.51,5.24-8.79,5.24-8.79-1-2.53-7-3.55-7-3.55a14.93,14.93,0,0,1,4.27-.59Z"/><path class="cls-7" d="M143.29,170.86c-3.38,7.33-15.44,9.13-22,8s-12.06-7-14.09-16,7.33-15.44,7.33-15.44c1.89.45,6.1,3.56,10.72,7.39,2.24,1.84,4.57,3.86,6.79,5.81C138.1,166,143.29,170.86,143.29,170.86Z"/><path class="cls-12" d="M132.78,166.38c-.51,5.16-5.24,6.17-7.61,4.91a9.18,9.18,0,0,1-4.22-11.5c1.2-3.49,3-4.65,4.32-5,2.24,1.84,4.57,3.86,6.79,5.81l.3.35S133.28,161.23,132.78,166.38Z"/><circle class="cls-4" cx="129.35" cy="162.45" r="3.08"/><path class="cls-13" d="M150.05,177s5.41-7.44,10.82-6.09,5.07-1.69,1.69-2.36S153.2,169.17,150.05,177Z"/><path class="cls-13" d="M150.27,183.6s2.71-7.55,7.44-8.57,8.79,1.47,8.79,2.82-1.69,1.24-4.62.23S154,178.86,150.27,183.6Z"/><path class="cls-14" d="M180.62,200.11s2.53-6.43,1.26-10.06a9.8,9.8,0,0,1-4.22,6.34C174.11,198.5,180.62,200.11,180.62,200.11Z"/><g class="cls-15"><path class="cls-13" d="M165.37,178.53s-5.41,1.35-6.31,6.53a24.65,24.65,0,0,0,.34,9.69l-5.18,2.15s-5.75-3.72-5.19-7.44S159,175.71,165.37,178.53Z"/></g><path class="cls-2" d="M193.37,224.26a4,4,0,0,1-2.79-1.08,14.94,14.94,0,0,0-2.15-.11c-.89,0-2,0-3.31.1-.33,0-.67,0-1,0-5.06,0-10.43-1.85-15.62-3.64-2.13-.74-4.34-1.5-6.5-2.12a150,150,0,0,0-16.85-3.21c-3.83-.58-7.12-1.09-9.28-1.6-4.83-1.16-9-6.2-11.66-10.46a4.78,4.78,0,0,1-3.08-2.07,3.82,3.82,0,0,1-.5-3.34c.77-2.38,3.87-3.92,6.34-4.79a5.77,5.77,0,0,1,1.92-.31c2.79,0,6.29,1.95,6.63,4.48a3.55,3.55,0,0,1-2.11,3.63c.16.45.39,1,.71,1.73,1.59,3.6,9.77,5,15.18,5.86l.6.1c6.25,1,12.72,2.12,14.21,2.22h.24a2.34,2.34,0,0,0,.38,0,4.29,4.29,0,0,1,.73-.07,3.84,3.84,0,0,1,2.67,1.16,58.81,58.81,0,0,0,14.82,5.11,17,17,0,0,0,2.84.28,6.89,6.89,0,0,0,2.06-.27,3.57,3.57,0,0,1-.5-3.83,3,3,0,0,1,2.6-1.52,8.79,8.79,0,0,1,7.65,7.25,6,6,0,0,1-1,5A4.18,4.18,0,0,1,193.37,224.26Z"/><path class="cls-4" d="M128.88,194.49c1.76,0,3.72,1.3,3.81,2s-2.19,1.24-2.19,1.24h0c-.17,0-1,.21,1,4.9,2.28,5.16,11.33,6.51,17.92,7.61s12.84,2.14,14.48,2.25l.43,0c.59,0,.87-.1,1.11-.1s.42.1.83.48c.9.84,9.41,4.56,16.17,5.74a18.82,18.82,0,0,0,3.33.32c4,0,5.22-1.73,5.4-2.46.23-.9-1.92-3.15-1.24-3.15a6.09,6.09,0,0,1,4.85,4.84c.39,2.53-.6,3.23-1.42,3.23a1.23,1.23,0,0,1-.84-.3c-.44-.44-.68-.89-4.1-.89-.9,0-2,0-3.45.11l-.87,0c-6.55,0-13.89-3.5-21.33-5.66-7.77-2.25-21.07-3.61-26.26-4.85s-9.8-9-10.36-9.91-1.69,0-2.71-1.47,2.54-3.15,4.45-3.83a2.91,2.91,0,0,1,1-.15Zm0-5.68a8.6,8.6,0,0,0-2.87.48,22.23,22.23,0,0,0-3.69,1.69,9,9,0,0,0-4.4,4.9,6.59,6.59,0,0,0,.87,5.82,7.58,7.58,0,0,0,3.6,2.88c3,4.51,7.43,9.51,12.81,10.8,2.27.54,5.62,1.05,9.51,1.65a152.29,152.29,0,0,1,16.49,3.12c2.09.61,4.26,1.36,6.37,2.08,5.41,1.87,11,3.8,16.54,3.8.39,0,.78,0,1.16,0,1.26-.06,2.32-.09,3.16-.09l1.06,0a7,7,0,0,0,9.21-1.28c1.1-1.28,2.28-3.59,1.7-7.33a11.41,11.41,0,0,0-4.68-7.51,10.87,10.87,0,0,0-5.78-2.14,5.82,5.82,0,0,0-5.81,5.49c-.22,0-.46-.06-.7-.11a57.19,57.19,0,0,1-13.64-4.62,6.6,6.6,0,0,0-4.34-1.68,8,8,0,0,0-1.14.09h0c-1.36-.09-8.33-1.26-13.93-2.19l-.62-.1a61,61,0,0,1-9.35-2.05,8.63,8.63,0,0,1-3.53-1.91,6.21,6.21,0,0,0,1.45-4.84,7.5,7.5,0,0,0-4.08-5.45,11,11,0,0,0-5.36-1.49Z"/><path class="cls-2" d="M188.86,199.34c1-.28,2-.54,3-.78l1.48-.36,1.49-.34c1-.24,2-.43,3-.65s2-.4,3-.59q6-1.14,12-1.82l3-.32,3-.23c.5,0,1-.08,1.51-.1l1.52-.07,1.51-.06c.51,0,1,0,1.52,0h3.79l.76,0,1.52.06,1.51.06c.25,0,.51,0,.76.06l.75.06,3,.28-3-.15-.76,0a6.37,6.37,0,0,0-.76,0h-3.78c-.25,0-.5,0-.75,0l-3,.13c-.5,0-1,.06-1.51.1l-1.5.13-1.51.12c-.5,0-1,.11-1.5.17-1,.11-2,.22-3,.35l-3,.43q-6,.93-11.84,2.29c-1,.24-2,.46-2.93.71s-2,.48-2.92.75l-1.45.4-1.45.42c-1,.28-1.92.57-2.86.87Z"/><rect class="cls-2" x="161.93" y="208.13" width="8.01" height="1.53" transform="translate(-51.95 362.83) rotate(-86.78)"/><path class="cls-2" d="M192.93,202.68c4.14-.37,8.27-.62,12.41-.79s8.28-.24,12.42-.19q3.12,0,6.21.18c2.07.09,4.14.24,6.2.43,1,.09,2.06.21,3.09.32s2.05.27,3.07.44c2,.33,4.07.73,6.07,1.26-2-.45-4.06-.77-6.1-1-1-.13-2.06-.22-3.08-.31s-2.06-.16-3.09-.2q-3.09-.17-6.18-.18t-6.18.07c-4.12.11-8.23.35-12.34.67s-8.21.74-12.28,1.27Z"/><path class="cls-2" d="M188.27,206.9c1.68,0,3.34,0,5,.06s3.33.11,5,.2c3.32.2,6.64.47,9.94.87,1.65.2,3.29.43,4.93.71s3.28.57,4.9.94a53.2,53.2,0,0,1,9.49,2.94,53,53,0,0,0-9.59-2.46c-1.62-.28-3.26-.5-4.9-.69s-3.28-.34-4.93-.46c-3.29-.24-6.59-.35-9.89-.37s-6.6,0-9.86.22Z"/><path class="cls-2" d="M145.34,204.91c-.32-.14-.68-.28-1-.41l-1.06-.38-1.08-.37-1.08-.35c-.73-.22-1.45-.45-2.19-.65s-1.46-.41-2.21-.58-1.47-.38-2.22-.53l-1.12-.25-.56-.12-.56-.11-2.25-.42-2.27-.36-.56-.09-.57-.07-1.14-.14c-.76-.09-1.52-.2-2.28-.26l-2.29-.21c-.77-.06-1.53-.09-2.3-.13-1.53-.11-3.06-.11-4.6-.13-.76,0-1.53,0-2.3,0l-2.3.06,2.29-.18c.77-.05,1.54-.13,2.31-.15,1.54,0,3.08-.14,4.62-.11.77,0,1.54,0,2.31,0l2.31.09c.77,0,1.54.08,2.31.13l1.16.09.57,0,.58.06,2.31.24,2.3.3.57.08.57.1,1.15.18c.77.12,1.53.27,2.29.42s1.52.31,2.27.48,1.51.35,2.27.54l1.13.29,1.12.32,1.13.34,1.13.38Z"/><path class="cls-2" d="M141.24,199c-.87-.41-1.77-.82-2.67-1.21s-1.82-.78-2.73-1.15-1.83-.73-2.75-1.1l-2.77-1c-3.72-1.36-7.49-2.56-11.3-3.63l-1.43-.39c-.47-.14-1-.27-1.43-.38l-2.88-.72c-.48-.12-1-.22-1.45-.32l-1.45-.31-1.46-.31c-.48-.11-1-.18-1.46-.27l-2.92-.52-3-.41-1.47-.21-1.48-.14-3-.28,3,.16,1.49.08,1.48.14,3,.29,3,.4c.49.07,1,.13,1.48.21l1.47.25,1.47.26c.49.08,1,.16,1.47.26l2.93.6c.49.09,1,.21,1.46.32l1.45.34c3.88.92,7.72,2,11.52,3.18l2.84.94c1,.33,1.89.65,2.83,1s1.88.69,2.81,1.05,1.85.74,2.79,1.14Z"/><path class="cls-2" d="M147,197l-.56-.44-.59-.44c-.39-.29-.81-.56-1.21-.85s-.84-.54-1.25-.81l-.63-.4-.65-.38-1.29-.76-1.32-.71c-.87-.49-1.77-.92-2.67-1.36a92.44,92.44,0,0,0-11.18-4.48l-2.88-.88-.73-.22c-.24-.08-.48-.13-.73-.2l-1.46-.38-1.46-.38c-.49-.12-1-.25-1.47-.35l-3-.63c-.49-.1-1-.22-1.48-.3l-1.5-.25-3-.5c-.5-.09-1-.14-1.51-.2l-1.5-.18-3-.37,3,.24,1.52.12c.5,0,1,.07,1.51.15l3,.37,1.51.19c.5.07,1,.17,1.5.25l3,.51c.51.08,1,.19,1.5.3L120,184l1.49.32c.25.05.5.1.74.17l.74.19,3,.77a93.75,93.75,0,0,1,11.51,4.08c.93.42,1.87.81,2.78,1.28l1.38.67,1.35.73.68.36.67.39c.44.26.89.5,1.32.79s.88.53,1.31.83.85.58,1.3.92Z"/><path class="cls-16" d="M252.46,88.54s9.29-4.39,12.42-12.68C264.88,75.86,266.49,90,252.46,88.54Z"/><path class="cls-16" d="M252.82,92.2s5.58.06,7.44-2.93C260.26,89.27,257.05,96.15,252.82,92.2Z"/><path class="cls-17" d="M81.32,81c-.29-.19-10.46-5.81-11.18-13.48-.67-7.08,1.51-14.86,1.6-15.19L73,48.08l2.59,3.62c.12.17,3,4.28,2.43,11.6C77.46,70,81.32,81,81.32,81Z"/><path class="cls-17" d="M68.63,70.45S71,83.3,82.32,89.05C82.32,89.05,69.13,90.23,68.63,70.45Z"/><path class="cls-17" d="M68.29,84.15s4.23,7.6,12.17,9.8C80.46,94,72.35,98,68.29,84.15Z"/><path class="cls-2" d="M167.18,194.53s-5.75-3.49-11.84-2.48,2.71,11.94,9,13.52,11.27-1.69,14.76-3.83.11-7.66-4.62-7.66A47.46,47.46,0,0,0,167.18,194.53Z"/><path class="cls-18" d="M275.36,76.55c-.85,6.92-7.1,11.65-15.55,19.6-5.63,5.28-8.18,8.24-9.06,11.33-.16-4.43,14.33-22.65,15.75-26.53s-2.67-11.38-5-17.65-1.25-22.8-1.25-22.8c-1.43.77-8.18,8.94-12.36,14.1A57.73,57.73,0,0,1,259,33.89c3.35-4.1,6.49-6.84,8.11-7.72,0,0-3.39,14.36-.52,25S276.2,69.61,275.36,76.55Z"/><path class="cls-16" d="M260.6,51A28.58,28.58,0,0,0,257,65.38c.23,8.23.57,12.74-1.35,15.78,0,0,6.76-3.94,8-9.92S260.15,53.44,260.6,51Z"/><path class="cls-4" d="M77.23,131.13v59.76H71q-1.38-2.59-2.5-5.07c-.13-.29-.25-.57-.38-.85q-.41-.91-.75-1.77c-2.7-18.13.55-27.74,1.11-29.21a.84.84,0,0,0,.08-.19h-.08c-10.4,3.14-13.36,17.46-14.12,22.8a1.07,1.07,0,0,0-.06.15c-4.48-20.75,4.76-29.5,7-31.26a42,42,0,0,1,7.31-.62l1,0-1-.35a75,75,0,0,0-12.83-3.25l-.6-.08c3.37-4.35,9.51-11.64,13.62-14,0,0,8-5.63,14-7.39a12,12,0,0,1,2.3-.5C89,118.93,77.23,131.13,77.23,131.13Z"/><path class="cls-5" d="M61.27,145.5a5.29,5.29,0,0,1,.47-.34c-3.67-.83-9.48,1.46-9.64,1.52a19.62,19.62,0,0,1,3.07-5.47,76.1,76.1,0,0,1,14.43,3.7A43,43,0,0,0,61.27,145.5Z"/><path class="cls-5" d="M68.58,153.78s-4.16,9.64-1.21,29.42a74.86,74.86,0,0,1-5.47-20.12c-2.52,1.42-7,12.12-7.54,13.53C55.12,171.26,58.11,156.86,68.58,153.78Z"/><path class="cls-2" d="M211.22,144s8.25-1.32,13.77,0,10.82,5.6,12,7.18l-13.69-2.48Z"/><path class="cls-19" d="M222.55,238.12s-18,25.41-23.44,26.18-27.64-18.62-27.64-18.62S209,244.84,222.55,238.12Z"/><path class="cls-20" d="M197.31,292s11.45-20,11.19-22.92-8.15,3.86-10.34,3.39-8.75-4.14-8.75-4.14S193.79,298.27,197.31,292Z"/><path class="cls-19" d="M110.45,238.12s18,25.41,23.44,26.18,27.64-18.62,27.64-18.62S124,244.84,110.45,238.12Z"/><path class="cls-20" d="M135.7,291.18s-11.46-19.95-11.2-22.91,8.15,3.86,10.34,3.39,8.75-4.14,8.75-4.14S139.21,297.47,135.7,291.18Z"/><path class="cls-21" d="M180,276.26c-5.26-1.69-11.5.69-12.62,3.35-.94,2.25-1.87,2.47-2.14,2.49s-1.21-.24-2.15-2.49c-1.11-2.66-7.36-5-12.61-3.35s-7.47,19.06-1.94,28.15c5.15,8.46,15.23,12.61,16.61,13.15v.07l.09,0,.08,0v-.07c1.39-.54,11.46-4.69,16.61-13.15C187.51,295.32,185.3,278,180,276.26Z"/><path class="cls-21" d="M180.47,264.77c-1-2-14.46-11.93-14.46-11.93l-.65-.43-.64.43s-13.43,10-14.46,11.93-3.26,7.89,2.4,8.32a111.11,111.11,0,0,0,12.7,0,111.31,111.31,0,0,0,12.71,0C183.73,272.66,181.5,266.74,180.47,264.77Z"/><path class="cls-5" d="M83.7,118.66l-.35.28c.76-.94,3.75-5.15-.86-9.78s-14.8-3.46-18.25-20.71c0-.09,0-.18,0-.26,1.35.44,3.21.88,3.21.88s.9,8,6.25,10.63S91.8,112,83.7,118.66Z"/><path class="cls-5" d="M277.71,140.38a20.35,20.35,0,0,1,3.06,5.46c-3.55-5.14-18-10.25-24.23-14.94s-7.19-13.71-6.62-16.08c.18-.75.37-1.53.61-2.28.31-.46,5.45-7.68,17.73-15.21C280.37,89.89,279.68,84,279.61,83.5c.26.63,3.81,9.71-2.21,16.88-6.26,7.43-11.67,11-11.67,12.85,0,0,8.12-.68,12-4.41,0,0-2.69,11.67-7.1,14.54S258,126.75,258,126.75s1.21.46,3.07,1.34C265.29,130.11,273,134.35,277.71,140.38Z"/><path class="cls-5" d="M83.27,119a4.94,4.94,0,0,1-.5.83,8.7,8.7,0,0,1-1.45,1.51c-1.54,1.3-6.83,4.91-12.56,9.18a130.79,130.79,0,0,0-13,10.75l-.6-.08c3.37-4.35,9.51-11.64,13.62-14,0,0-9-1.69-13.68-17.07,0,0,6.08,5.24,9.12,5.07,0,0-15.72-15.88-5.23-41.41,0,0,.16,29.41,10.47,32.79a22.81,22.81,0,0,1,13.49,12l.2.45v0Z"/><path class="cls-5" d="M242.57,52.88c-2.91,7.21-4,29.35-3.37,41.64A4.49,4.49,0,0,1,233,98.87a17.07,17.07,0,0,1-5.36-3.5s0,0-.06-.06h0a10.85,10.85,0,0,0,7-4c2.85-3.61-1.52-32.89-1.52-32.89-8.25.82-36.33,26.62-36.33,26.62l-1.31-15.4c-9.88-4.56-39.8-1.72-39.8-1.72-.25-3.12,6.13-9.3,6.52-9.68C142,64.94,134.92,86.4,130.93,81,121,67.33,98.73,52,98,51.49c3.29,6,3.16,23.61.49,35.3-2.59,11.38,5.61,11.71,6,11.72,0,0,0,0,0,0-2.11.75-10.9,3.19-9.71-9.48S102,63,90.35,44.74A72.43,72.43,0,0,0,85,37.57s18.25,1.78,46.9,40.32c0,0,2.27.4,1.56-4.6a37,37,0,0,0-1.81-6.73s11-7.6,14.54-7.76l-.74,3.68-.28,1.38s19.45-15.55,33.47-15l-.59.33c-2.43,1.4-11.61,7.07-15.88,15.13a2.34,2.34,0,0,1,.61-.65l0,0c2.37-1.8,8.95-1.64,11.06-1.68a71.86,71.86,0,0,1,13.73,1.24c3.58.63,7.13,1.46,10.63,2.38.58.15,6.2,2,5.76,2.43a18.19,18.19,0,0,0-3,4.59c-.65,1.31-1.21,2.57-1.56,3.46-.27.63-.43,1.07-.46,1.18.07-.06.38-.36.9-.81l0-.06c4-3.66,19.74-17.8,31.16-25,12.77-8,17.62-15.73,17.91-16.21C248.82,35.68,246,44.36,242.57,52.88Z"/><path class="cls-2" d="M479.17,213.86,417.92,100.27l-13-1v-27H485v26l-9.58.69q-10.77,1.55-5.13,12.31l33.19,67.07h.69l39.35-78-16.08-1v-27H595.5v26l-7.18.69c-5.13.68-9.24,4.44-12.66,10.94L520.91,213.18v58.51l22.24,1v27h-86.9V274.09l13.34-1c6.5-1,9.58-4.45,9.58-10.61Z"/><path class="cls-2" d="M783.69,274.43q-26.18,29.77-72.88,29.77T639,274.43c-17.46-20.19-26-49.27-26-87.94,0-40.71,10.95-71.17,32.51-92C663.59,77,686.86,68.1,714.92,68.1c28.4,0,50.64,8.9,67.06,26.35,19.16,20.19,28.75,51,28.75,92C810.73,224.81,801.83,254.24,783.69,274.43ZM713.55,269c35.93,0,54.06-27,54.06-81.43,0-22.24-3.42-40.38-10.6-54.75-9.25-19.5-24.3-29.08-44.49-29.08-19.5,0-34.21,8.55-44.14,25.32-8.21,14-12.32,32.85-12.32,55.77Q656.06,269,713.55,269Z"/><path class="cls-2" d="M859.31,100.27l-18.48-1v-27H920.9V97.87L910,99.24q-9.24,1.55-9.24,11.29V269.3h56.12q9.24,0,9.24-9.24V237.82l32.84,2.39v59.54H840.15v-26l10.6-1c5.82-1,8.56-4.45,8.56-10.61Z"/><path class="cls-2" d="M1197.71,274.43q-26.18,29.77-72.88,29.77T1053,274.43c-17.45-20.19-26-49.27-26-87.94,0-40.71,11-71.17,32.51-92,18.13-17.45,41.4-26.35,69.46-26.35,28.4,0,50.64,8.9,67.06,26.35,19.16,20.19,28.75,51,28.75,92C1224.75,224.81,1215.85,254.24,1197.71,274.43ZM1127.57,269c35.93,0,54.06-27,54.06-81.43,0-22.24-3.42-40.38-10.6-54.75-9.24-19.5-24.3-29.08-44.49-29.08-19.5,0-34.21,8.55-44.14,25.32-8.21,14-12.31,32.85-12.31,55.77Q1070.09,269,1127.57,269Z"/></g></g></svg>